<svg xmlns="http://www.w3.org/2000/svg" xmlns:xlink="http://www.w3.org/1999/xlink" version="1.1"  x="0px" y="0px" width="32" height="32" viewBox="0 0 40 40" enable-background="new 0 0 40 40" xml:space="preserve" preserveAspectRatio="none" style="fill: rgb(3, 90, 161);" viewbox="0 0 32 32">
<g id="55152512_Shape_5_xA0_Clipping_Path_1_">
	<g>
		<path d="M20,25c5.929,0,9-8.295,9-12S28.893,2,20,2c-8.893,0-9,7.295-9,11S14.071,25,20,25z M34.821,28.893    c-2.224-1.481-8.893-4.446-8.893-4.446c0,7.411-3.706,11.116-3.706,11.116l-1.481-3.705l1.481-2.224L20,27.411l-2.223,2.223    l1.482,2.224l-1.482,3.705c0,0-3.706-3.705-3.706-11.116c0,0-6.669,2.965-8.893,4.446C2.956,30.375,2,38,2,38h36    C38,38,37.438,30.637,34.821,28.893z" style="fill: rgb(3, 90, 161);"></path>
	</g>
</g>
</svg>