<svg version="1.1"  xmlns="http://www.w3.org/2000/svg" xmlns:xlink="http://www.w3.org/1999/xlink" x="0px" y="0px" width="32" height="32" viewBox="0 0 24 24" style="fill: rgb(3, 90, 161);" xml:space="preserve" preserveAspectRatio="none" viewbox="0 0 32 32">
<path d="M3,11V7.75c0-0.552,0.448-1,1-1h0.846C5.803,3.711,8.648,1.5,12,1.5c4.136,0,7.5,3.364,7.5,7.5
	c0,1.715-0.595,3.393-1.673,4.724l-1.166-0.945C17.537,11.699,18,10.392,18,9c0-3.309-2.691-6-6-6S6,5.691,6,9v2
	c0,0.552-0.448,1-1,1H4C3.448,12,3,11.552,3,11z M12,15c-3.375,0-9,1.375-9,4.75V22h18v-2.25C21,16.375,15.375,15,12,15z M12,4
	C9.239,4,7,6.239,7,9s2.239,5,5,5s5-2.239,5-5S14.761,4,12,4z" style="fill: rgb(3, 90, 161);"></path>
</svg>