<svg version="1.1"  xmlns="http://www.w3.org/2000/svg" xmlns:xlink="http://www.w3.org/1999/xlink" x="0px" y="0px" width="32" height="32" viewBox="0 0 32 32" style="fill: rgb(3, 90, 161);" xml:space="preserve" preserveAspectRatio="none" viewbox="0 0 32 32">
<path d="M27,28H5c0-5.12,3.5-9.41,8.24-10.64L16,20.12l2.76-2.76C23.5,18.59,27,22.88,27,28z M10,10c0-3.31,2.69-6,6-6
	c3.31,0,6,2.69,6,6c0,1.48-0.53,2.83-1.42,3.87l2.77,2.78L22.65,17.35l-2.78-2.77C18.83,15.47,17.48,16,16,16
	C12.69,16,10,13.31,10,10z M11,10c0,2.76,2.24,5,5,5s5-2.24,5-5s-2.24-5-5-5S11,7.24,11,10z M12,10c0-2.21,1.79-4,4-4s4,1.79,4,4
	s-1.79,4-4,4S12,12.21,12,10z M14,10c0,1.1,0.9,2,2,2c1.1,0,2-0.9,2-2s-0.9-2-2-2C14.9,8,14,8.9,14,10z" style="fill: rgb(3, 90, 161);"></path>
</svg>