<svg xmlns="http://www.w3.org/2000/svg" xmlns:xlink="http://www.w3.org/1999/xlink" version="1.1"  x="0px" y="0px" width="32" height="32" viewBox="0 0 40 40" enable-background="new 0 0 40 40" xml:space="preserve" preserveAspectRatio="none" style="fill: rgb(3, 90, 161);" viewbox="0 0 32 32">
<g id="55152562_Shape_5_xA0_Clipping_Path_2_">
	<g>
		<path d="M38.717,13.458C38.396,13.059,37.885,13,37.192,13H34v-2.5C34,9.122,32.879,8,31.5,8H29V4H8v4H4.5C3.122,8,2,9.122,2,10.5    v22C2,33.879,3.122,35,4.5,35h27.589c1.292,0,2.525-1.004,2.808-2.284L38.8,15.015C38.953,14.316,39.045,13.866,38.717,13.458z     M31.5,10c0.275,0,0.5,0.224,0.5,0.5V13h-3v-3H31.5z M27,6v7H11c-0.344,0-0.682,0.075-1,0.204V6H27z M4,10.5    C4,10.224,4.224,10,4.5,10H8v6.159L4.443,32.285c-0.065,0.295-0.149,0.488-0.248,0.601C4.079,32.795,4,32.659,4,32.5V10.5z" style="fill: rgb(3, 90, 161);"></path>
	</g>
</g>
</svg>