<svg xmlns="http://www.w3.org/2000/svg" xmlns:xlink="http://www.w3.org/1999/xlink" version="1.1" x="0px" y="0px" width="32" height="32" viewBox="0 0 40 40" enable-background="new 0 0 40 40" xml:space="preserve" preserveAspectRatio="none" viewbox="0 0 32 32" style="fill: rgb(3, 90, 161);">
<g id="555334326_Shape_5_xA0_Clipping_Path_1_">
	<g>
		<path d="M11,5.733c0-0.415,0.336-0.751,0.75-0.751h16.5c0.414,0,0.75,0.336,0.75,0.751v11.601l3-3V3.5C32,2.672,31.328,2,30.5,2    h-21C8.671,2,8,2.672,8,3.5v10.833l3,3V5.733z M28,18.334V6H12v12.333L13.667,20L12,21.666V36h16V21.666L26.334,20L28,18.334z     M8,36.5C8,37.328,8.671,38,9.5,38H11V22.666l-3,3V36.5z M35,18v-5l-7,7l7,7v-5h3v-4H35z M29,38h1.5c0.828,0,1.5-0.672,1.5-1.5    V25.666l-3-3V38z M12,20l-7-7v5H2v4h3v5L12,20z" style="fill: rgb(3, 90, 161);"></path>
	</g>
</g>
</svg>