<svg xmlns="http://www.w3.org/2000/svg" xmlns:xlink="http://www.w3.org/1999/xlink" version="1.1"  x="0px" y="0px" width="32" height="32" viewBox="0 0 64 64" style="enable-background:new 0 0 64 64;" xml:space="preserve" preserveAspectRatio="none" viewbox="0 0 32 32">

<g>
	<path class="stshockcolor" d="M60,45c0,1.657-1.343,3-3,3H25c-1.657,0-3-1.343-3-3V8c0-1.657,1.343-3,3-3h32c1.657,0,3,1.343,3,3V45z" style="fill:#93C1CF;;" data-st="fill:#93C1CF;;"></path>
	<g>
		<defs>
			<path id="574330380_SVGID_1_" d="M48.152,24.945c1.166-1.259,1.804-2.864,1.804-4.511c0-4.229-2.442-7-7.276-7c-0.844,0-2.35,0-3.724,0h-3     h-3v26h3.882h2.118c1.559,0,3.491,0,4,0c4.444,0,9-2,9-8C51.956,28.366,50.397,26.233,48.152,24.945z M38.956,17.435     c0,0,0.162,0,2,0c2.03,0,3,1.343,3,3c0,1.656-0.97,3-3,3c-0.919,0-2,0-2,0V17.435z M41.756,35.435c-1.935,0-2.8,0-2.8,0v-8     c0,0,0.865,0,2.8,0c2.669,0,4.2,1.791,4.2,4.001C45.956,33.644,44.425,35.435,41.756,35.435z"></path>
		</defs>
		<clipPath id="574330380_SVGID_2_">
			<use xlink:href="#574330380_SVGID_1_" style="overflow:visible;"></use>
		</clipPath>
		<g class="st3" style="clip-path:url(#574330380_SVGID_2_);;">
			<rect x="32.391" y="12.869" class="st0" width="22.609" height="27.131" style="fill:#47485E;;"></rect>
			<path class="st9" d="M49.956,20.435c0,3.591-3,7-8,7c-1.818,0-9,0-9,0v12h20v-19H49.956z" style="fill-opacity:0.25;;"></path>
		</g>
	</g>
</g>
<g>
	<g>
		<defs>
			<path id="574330380_SVGID_3_" d="M42,56c0,1.657-1.343,3-3,3H7c-1.657,0-3-1.343-3-3V19.681c0-1.657,1.343-3,3-3h32c1.657,0,3,1.343,3,3V56     z"></path>
		</defs>
		<use xlink:href="#574330380_SVGID_3_" style="overflow:visible;fill:#DEDCD9;"></use>
		<clipPath id="574330380_SVGID_4_">
			<use xlink:href="#574330380_SVGID_3_" style="overflow:visible;"></use>
		</clipPath>
		<g class="st4" style="clip-path:url(#574330380_SVGID_4_);;">
			<g>
				<path class="st1 stshockcolor" d="M60,45c0,1.657-1.343,3-3,3H25c-1.657,0-3-1.343-3-3V8c0-1.657,1.343-3,3-3h32c1.657,0,3,1.343,3,3V45z" style="fill:#93C1CF;;opacity:0.3;;" data-st="fill:#93C1CF;;opacity:0.3;;"></path>
				<path class="st2" d="M60,45c0,1.657-1.343,3-3,3H25c-1.657,0-3-1.343-3-3V8c0-1.657,1.343-3,3-3h32c1.657,0,3,1.343,3,3V45z" style="opacity:0.15;;"></path>
			</g>
			<g class="st8" style="opacity:0.7;;">
				<g>
					<path class="stshockcolor" d="M48.152,24.945c1.166-1.259,1.804-2.864,1.804-4.511c0-4.229-2.442-7-7.276-7c-0.844,0-2.35,0-3.724,0h-3       h-3v26h3.882h2.118c1.559,0,3.491,0,4,0c4.444,0,9-2,9-8C51.956,28.366,50.397,26.233,48.152,24.945z M38.956,17.435       c0,0,0.162,0,2,0c2.03,0,3,1.343,3,3c0,1.656-0.97,3-3,3c-0.919,0-2,0-2,0V17.435z M41.756,35.435c-1.935,0-2.8,0-2.8,0v-8       c0,0,0.865,0,2.8,0c2.669,0,4.2,1.791,4.2,4.001C45.956,33.644,44.425,35.435,41.756,35.435z" style="fill:#93C1CF;;" data-st="fill:#93C1CF;;"></path>
				</g>
				<g class="st7" style="opacity:0.3;;">
					<path d="M48.152,24.945c1.166-1.259,1.804-2.864,1.804-4.511c0-4.229-2.442-7-7.276-7c-0.844,0-2.35,0-3.724,0h-3h-3v26h3.882       h2.118c1.559,0,3.491,0,4,0c4.444,0,9-2,9-8C51.956,28.366,50.397,26.233,48.152,24.945z M38.956,17.435c0,0,0.162,0,2,0       c2.03,0,3,1.343,3,3c0,1.656-0.97,3-3,3c-0.919,0-2,0-2,0V17.435z M41.756,35.435c-1.935,0-2.8,0-2.8,0v-8c0,0,0.865,0,2.8,0       c2.669,0,4.2,1.791,4.2,4.001C45.956,33.644,44.425,35.435,41.756,35.435z"></path>
				</g>
			</g>
		</g>
	</g>
	<g>
		<defs>
			<path id="574330380_SVGID_5_" d="M28.431,51h5.975l-8.418-26h-5.975l-8.418,26h5.975l1.295-4h8.271L28.431,51z M20.16,43L23,34.227     L25.84,43H20.16z"></path>
		</defs>
		<use xlink:href="#574330380_SVGID_5_" style="overflow:visible;fill:#47485E;"></use>
		<clipPath id="574330380_SVGID_6_">
			<use xlink:href="#574330380_SVGID_5_" style="overflow:visible;"></use>
		</clipPath>
		<g class="st5" style="clip-path:url(#574330380_SVGID_6_);;">
			<polygon class="st7" points="36.347,51.766 20.639,59.771 17.569,51 25.987,25    " style="opacity:0.3;;"></polygon>
		</g>
	</g>
</g>
</svg>