<svg version="1.1" xmlns="http://www.w3.org/2000/svg" xmlns:xlink="http://www.w3.org/1999/xlink" x="0px" y="0px" width="32" height="32" viewBox="0 0 40 40" enable-background="new 0 0 40 40" xml:space="preserve" preserveAspectRatio="none" style="fill: rgb(199, 68, 28);" viewbox="0 0 32 32">
<g id="Shape_5_xA0_Clipping_Path_2_">
	<g>
		<path d="M15.5,18.009h9c2.25,0,2.25-1.524,3.75-2.287c1.5-0.762,2.25-0.762,2.25-0.762s0-0.763,0-1.525
			c0-1.524-1.5-1.524-1.5-1.524c-0.75-8.386-6.264-8.386-6.264-8.386L21.5,2h-3l-1.237,1.524c0,0-5.513,0-6.263,8.386
			c0,0-1.5,0-1.5,1.524v1.525c0,0,0.75,0,2.25,0.762C13.25,16.484,13.25,18.009,15.5,18.009z M15,12.134
			c0-1.347,1.201-2.049,2-2.125V6.335c0-0.695,0.187-1.266,1-1.502v5.161h4V4.833c0.813,0.236,1,0.807,1,1.502v3.674
			c0.799,0.075,2,0.778,2,2.125v1.427c0,0.637-0.422,1.17-1,1.353v-2.459c0-0.801-0.717-1.449-1.6-1.449h-4.8
			c-0.884,0-1.6,0.648-1.6,1.449v2.459c-0.578-0.183-1-0.716-1-1.353V12.134z M24.5,19.02h-9c-1.5,0-1.5,0-3-1.479
			c-0.521-0.515-1.039-0.842-1.498-1.062C11.001,16.656,11,16.835,11,17c0,3.705,3.071,12,9,12s9-8.295,9-12
			c0-0.165-0.001-0.344-0.002-0.521c-0.459,0.219-0.977,0.547-1.498,1.062C26,19.02,26,19.02,24.5,19.02z M34.821,32.893
			c-2.224-1.481-8.893-4.446-8.893-4.446S24.017,31,20,31s-5.929-2.554-5.929-2.554s-6.669,2.965-8.893,4.446
			C2.956,34.375,2,38,2,38h36C38,38,37.438,34.637,34.821,32.893z" style="fill: rgb(199, 68, 28);"></path>
	</g>
</g>
</svg>