<svg version="1.1"  xmlns="http://www.w3.org/2000/svg" xmlns:xlink="http://www.w3.org/1999/xlink" x="0px" y="0px" width="32" height="32" viewBox="0 0 32 32" style="fill: rgb(3, 90, 161);" xml:space="preserve" preserveAspectRatio="none" viewbox="0 0 32 32">
<path d="M21,7.5V1.586C24.785,5.371,23.625,4.211,27.414,8C25.327,8,21.5,8,21.5,8C21.225,8,21,7.776,21,7.5z M14,13.5V7H5.5
	C4.672,7,4,7.672,4,8.5v21C4,30.328,4.672,31,5.5,31h15c0.828,0,1.5-0.672,1.5-1.5V15h-6.5C14.671,15,14,14.328,14,13.5z M21.5,9
	C20.672,9,20,8.328,20,7.5V1h-8.5C10.672,1,10,1.672,10,2.5V6h4c0.871,0,1.25,0.355,1.563,0.719l0.145,0.16l6.414,6.414l0.159,0.143
	C22.645,13.745,23,14.121,23,15v10h3.5c0.828,0,1.5-0.672,1.5-1.5V9H21.5z M21.414,14c-3.789-3.789-2.629-2.629-6.414-6.414V13.5
	c0,0.276,0.224,0.5,0.5,0.5C15.5,14,19.327,14,21.414,14z" style="fill: rgb(3, 90, 161);"></path>
</svg>