<svg xmlns="http://www.w3.org/2000/svg" xmlns:xlink="http://www.w3.org/1999/xlink" version="1.1"  x="0px" y="0px" width="32" height="32" viewBox="0 0 40 40" enable-background="new 0 0 40 40" xml:space="preserve" preserveAspectRatio="none" style="fill: rgb(3, 90, 161);" viewbox="0 0 32 32">
<g id="55152631_Shape_5_xA0_Clipping_Path_1_">
	<g>
		<path d="M33,6h-8.004V4.419c0-0.789-0.671-1.43-1.498-1.43h-7.996c-0.828,0-1.499,0.641-1.499,1.43V6H6C4.896,6,4,6.896,4,8v3h31    V8C35,6.896,34.104,6,33,6z M8,34c0,1.717,0.961,3,2.677,3h17.645C30.039,37,31,35.717,31,34l2-22H6L8,34z M25,16.5    c0-0.828,0.672-1.5,1.5-1.5s1.5,0.672,1.5,1.5v15c0,0.828-0.672,1.5-1.5,1.5S25,32.328,25,31.5V16.5z M18,16.5    c0-0.828,0.671-1.5,1.5-1.5c0.828,0,1.5,0.672,1.5,1.5v15c0,0.828-0.672,1.5-1.5,1.5c-0.829,0-1.5-0.672-1.5-1.5V16.5z M11,16.5    c0-0.828,0.671-1.5,1.5-1.5s1.5,0.672,1.5,1.5v15c0,0.828-0.671,1.5-1.5,1.5S11,32.328,11,31.5V16.5z" style="fill: rgb(3, 90, 161);"></path>
	</g>
</g>
</svg>