<svg xmlns="http://www.w3.org/2000/svg" xmlns:xlink="http://www.w3.org/1999/xlink" class="addmask" version="1.1"  x="0px" y="0px" width="32" height="32" viewBox="0 0 40 40" enable-background="new 0 0 40 40" xml:space="preserve" style="fill: rgb(3, 90, 161);" viewbox="0 0 32 32">
<g class="addon_content">
	<g>
		<defs>
			<path class="mask_container" id="55_edit_mask" d="M-28.99-29V91h120V-29H-28.99z M40.2,26.83L28.44,38.59c-0.131,0.12-0.271,0.22-0.431,0.3l-4.92,2    C22.98,40.95,22.76,41,22.53,41c-0.41,0-0.79-0.16-1.08-0.45c-0.431-0.46-0.55-1.1-0.32-1.649l1.96-4.83    c0.05-0.141,0.17-0.34,0.33-0.5l11.75-11.75c0.54-0.53,1.18-0.811,1.88-0.811c0.88,0,1.74,0.431,2.63,1.311    C40.53,23.18,40.96,24,41,24.83C41.02,25.6,40.75,26.28,40.2,26.83z" transform="translate(0,0)" style="fill: rgb(3, 90, 161);"></path>
		</defs>
		<clipPath id="55_edit_mask_1_">
			<use xlink:href="#55_edit_mask" overflow="visible"></use>
		</clipPath>
	</g>
	<path id="55_edit_addon" d="M32.85,25.56c-3.489,3.49-8.72,8.721-8.72,8.721c-0.05,0.05-0.09,0.109-0.11,0.17l-1.97,4.84  c-0.08,0.19-0.03,0.41,0.11,0.56C22.26,39.95,22.39,40,22.53,40c0.06,0,0.13-0.01,0.189-0.04L27.56,38  c0.061-0.03,0.12-0.07,0.171-0.12c0,0,5.229-5.229,8.72-8.72L32.85,25.56z M23.96,38.35l-0.29-0.3l1.26-3.109l2.15,2.14L23.96,38.35  z M38.98,23.03c-0.69-0.681-1.32-1.021-1.931-1.021c-0.43,0-0.819,0.17-1.16,0.51c-0.029,0.03-0.149,0.15-0.33,0.33l3.601,3.601  c0.18-0.181,0.3-0.3,0.33-0.33c0.45-0.45,0.52-0.92,0.51-1.24C39.97,24.29,39.63,23.69,38.98,23.03z M33.56,24.85l3.601,3.601  c0.49-0.49,0.93-0.931,1.29-1.29L34.85,23.56C34.49,23.92,34.05,24.36,33.56,24.85z" style="fill: rgb(3, 90, 161);"></path>
</g>
<g id="55_edit_icon_placeholder" clip-path="url(#55_edit_mask_1_)">
	<g class="icnplhld"><!--?xml version="1.0" encoding="utf-8"?-->
<!-- Generator: Adobe Illustrator 15.0.0, SVG Export Plug-In . SVG Version: 6.00 Build 0)  -->

<g xmlns="http://www.w3.org/2000/svg" xmlns:xlink="http://www.w3.org/1999/xlink" version="1.1" x="0px" y="0px" width="40px" height="40px" viewBox="0 0 40 40" enable-background="new 0 0 40 40" xml:space="preserve" preserveAspectRatio="none" class="svgmask" style="fill: rgb(3, 90, 161);">
<g id="55152626_Shape_5_xA0_Clipping_Path_1_">
	<g>
		<path d="M36.585,16.302c-0.786-3.536-2.68-6.648-5.286-8.978l-8.916,10.427L36.585,16.302z M29.735,6.076    C26.979,4.142,23.625,3,20,3C13.584,3,8.003,6.557,5.108,11.804L19.71,17.8L29.735,6.076z M36.913,18.279l-17.061,1.742    L4.251,13.613C3.451,15.586,3,17.739,3,20c0,9.389,7.611,17,17,17s17-7.611,17-17C37,19.419,36.97,18.845,36.913,18.279z" style="fill: rgb(3, 90, 161);"></path>
	</g>
</g>
</g></g>
</g>
</svg>