<svg xmlns="http://www.w3.org/2000/svg" xmlns:xlink="http://www.w3.org/1999/xlink" version="1.1"  x="0px" y="0px" width="32" height="32" viewBox="0 0 24 24" style="enable-background:new 0 0 24 24;" xml:space="preserve" preserveAspectRatio="none" viewbox="0 0 32 32">

<rect class="st1" width="24" height="24" style="fill:none;;"></rect>
<path id="583245777_shock_x5F_color" class="stshockcolor" d="M21,16.51V20c0,0.55-0.45,1-1,1C10.61,21,3,13.391,3,4c0-0.55,0.45-1,1-1h3.5  c0.55,0,1,0.45,1,1c0,1.25,0.2,2.45,0.57,3.57C9.18,7.92,9.1,8.31,8.82,8.59l-2.2,2.2v0.01c1.44,2.812,3.74,5.11,6.55,6.562  c0.01,0.01,0.03,0.02,0.04,0.02l2.2-2.199c0.27-0.271,0.67-0.359,1.02-0.24c1.12,0.369,2.33,0.569,3.57,0.569  C20.55,15.51,21,15.96,21,16.51z M18.71,2.29l-1.42,1.42L18.59,5H11v2h7.59l-1.3,1.29l1.42,1.42L22.41,6L18.71,2.29z" style="fill: rgb(3, 90, 161);" data-st="fill:#FB8C00;;"></path>
<path class="st2" d="M8.82,8.59l-2.2,2.2H6.6C5.18,6.94,5.5,3,5.5,3h2c0.55,0,1,0.45,1,1c0,1.25,0.2,2.45,0.57,3.57  C9.18,7.92,9.1,8.31,8.82,8.59z M20,15.51c-1.24,0-2.45-0.199-3.57-0.568c-0.35-0.121-0.75-0.03-1.02,0.238l-2.2,2.2  c2.04,1.19,5.569,1.521,7.79,1.601V16.51C21,15.96,20.55,15.51,20,15.51z" style="opacity:0.4;fill:#FFFFFF;enable-background:new    ;;"></path>
</svg>