<svg version="1.1"  xmlns="http://www.w3.org/2000/svg" xmlns:xlink="http://www.w3.org/1999/xlink" x="0px" y="0px" width="32" height="32" viewBox="0 0 32 32" style="fill: rgb(3, 90, 161);" xml:space="preserve" preserveAspectRatio="none" viewbox="0 0 32 32">
<path d="M26.607,20.95l-5.658-5.658l-4.242,4.243l5.657,5.657c0.855,0.855,2.687,1.556,4.242,0S27.463,21.806,26.607,20.95z
	 M24.485,23.071c-0.389,0.389-1.025,0.389-1.414,0c-0.39-0.389-0.39-1.025-0.001-1.414s1.025-0.389,1.415,0
	C24.874,22.046,24.874,22.683,24.485,23.071z M5.393,11.05c-1.556-1.555-0.855-3.387,0-4.242l0.707-0.707l3.246,3.246h1.414V7.933
	L7.515,4.687l0.707-0.707c1.556-1.557,3.387-0.855,4.243,0l1.415,1.414c0.085,0.085,1.888,1.916,1.499,4.327l2.036,2.036L13.172,16
	l-2.037-2.036c-2.412,0.389-4.243-1.414-4.328-1.499L5.393,11.05z M8.929,18.829l4.95,4.949l-3.182,3.182
	c-0.608,0.609-2.135,1.4-3.536,0l-1.414-1.414c-1.4-1.4-0.608-2.927,0-3.535L8.929,18.829z M15.65,19.89
	c0.42,0.42,0.77,1.341,0,2.12l-1.06,1.061l-4.95-4.95l1.06-1.061c0.77-0.779,1.69-0.42,2.12,0l0.35,0.351l7.98-7.98l0.01-1.49
	l4.109-2.47l1.971,1.97l-2.471,4.11H23.28l-7.98,7.99L15.65,19.89z" style="fill: rgb(3, 90, 161);"></path>
</svg>