<svg xmlns="http://www.w3.org/2000/svg" xmlns:xlink="http://www.w3.org/1999/xlink" version="1.1"  x="0px" y="0px" width="32" height="32" viewBox="0 0 64 64" style="enable-background:new 0 0 64 64;" xml:space="preserve" preserveAspectRatio="none" viewbox="0 0 32 32">

<g>
	<g>
		<defs>
			<path id="575339324_SVGID_1_" d="M53,11.5c0,0,0,38.41,0,42S43.598,60,32,60s-21-2.91-21-6.5s0-42,0-42H53z"></path>
		</defs>
		<use xlink:href="#575339324_SVGID_1_" class="stshockcolor" style="fill: rgb(3, 90, 161); overflow: visible;" data-st="fill:#DE7047;;overflow:visible;"></use>
		<clipPath id="575339324_SVGID_2_">
			<use xlink:href="#575339324_SVGID_1_" style="overflow:visible;"></use>
		</clipPath>
		<g class="st1" style="clip-path:url(#575339324_SVGID_2_);;">
			<path class="st4" d="M53,60V39.5c0,3.59-9.402,6.5-21,6.5s-21-2.91-21-6.5V60H53z" style="fill:#231F20;fill-opacity:0.15;;"></path>
			<path class="st4" d="M53,60V25.5c0,3.59-9.402,6.5-21,6.5s-21-2.91-21-6.5V60H53z" style="fill:#231F20;fill-opacity:0.15;;"></path>
		</g>
	</g>
	<g>
		<ellipse class="stshockcolor" cx="32" cy="11.5" rx="21" ry="6.5" style="fill: rgb(3, 90, 161);" data-st="fill:#DE7047;;"></ellipse>
		<ellipse class="st0" cx="32" cy="11.5" rx="21" ry="6.5" style="opacity:0.5;fill:#FFFFFF;;"></ellipse>
	</g>
</g>
<path class="st2" d="M33.892,41h-3.784l-1.893-15h7.57L33.892,41z M32,43c-2.21,0-4,1.79-4,4.002C28,49.21,29.79,51,32,51  s4-1.79,4-3.998C36,44.79,34.21,43,32,43z" style="fill:#FFFFFF;;"></path>
</svg>