<svg xmlns="http://www.w3.org/2000/svg" xmlns:xlink="http://www.w3.org/1999/xlink" version="1.1"  x="0px" y="0px" width="32" height="32" viewBox="0 0 24 24" style="enable-background:new 0 0 24 24;" xml:space="preserve" viewbox="0 0 32 32">

<rect class="st2" width="24" height="24" style="fill:none;;"></rect>
<path id="585341883_shock_x5F_color" class="stshockcolor" d="M22,12c0,5.52-4.48,10-10.01,10C6.47,22,2,17.52,2,12C2,6.48,6.47,2,11.99,2  C17.52,2,22,6.48,22,12z" style="fill: rgb(3, 90, 161); fill-opacity: 0.9;" data-st="fill:#43A047;fill-opacity:0.9;;"></path>
<path class="st1" d="M11.99,4C7.58,4,4,7.59,4,12s3.58,8,7.99,8c4.42,0,8.01-3.59,8.01-8S16.41,4,11.99,4z M16.25,16.15L11,13V7h1.5  v5.25l4.5,2.67L16.25,16.15z" style="opacity:0.8;fill:#FFFFFF;fill-opacity:0.9;;"></path>
</svg>