<svg xmlns="http://www.w3.org/2000/svg" xmlns:xlink="http://www.w3.org/1999/xlink" version="1.1"  x="0px" y="0px" width="32" height="32" viewBox="0 0 40 40" enable-background="new 0 0 40 40" xml:space="preserve" preserveAspectRatio="none" style="fill: rgb(3, 90, 161);" viewbox="0 0 32 32">
<g id="553251811_Shape_5_xA0_Clipping_Path_3_">
	<g>
		<path d="M20,9c-5.929,0-6,5.077-6,7.656s2.048,8.352,6,8.352s6-5.772,6-8.352S25.929,9,20,9z M13.963,20.854    C13.315,19.266,13,17.67,13,16.656C13,14.289,13,8,20,8s7,6.289,7,8.656c0,1.014-0.314,2.609-0.963,4.197    C29.307,19.958,31,14.998,31,12.656C31,10.077,30.929,5,25,5c-2.706,0-4.185,1.062-5,2.457C19.185,6.062,17.707,5,15,5    c-5.929,0-6,5.077-6,7.656C9,14.998,10.694,19.958,13.963,20.854z M35.705,24.423c-1.606-1.07-6.424-3.212-6.424-3.212    S28.038,23.056,25,23.056c-0.042,0-0.076-0.008-0.118-0.009c-0.232,0.343-0.48,0.672-0.754,0.975l0.56,0.275    c0.2,0.089,4.914,2.189,6.572,3.294c0.987,0.658,1.624,2.022,2.034,3.409H38C38,31,37.594,25.683,35.705,24.423z M8.741,27.591    c1.658-1.104,6.372-3.205,6.571-3.294l0.578-0.257c-0.28-0.308-0.533-0.644-0.77-0.993c-0.042,0.001-0.077,0.009-0.12,0.009    c-3.038,0-4.281-1.845-4.281-1.845s-4.817,2.142-6.423,3.212C2.69,25.493,2,31,2,31h4.801C7.231,29.566,7.854,28.182,8.741,27.591    z M30.705,28.423c-1.606-1.07-6.424-3.212-6.424-3.212S23.038,27.056,20,27.056s-4.282-1.845-4.282-1.845    s-4.817,2.142-6.423,3.212C7.69,29.493,7,35,7,35h26C33,35,32.594,29.683,30.705,28.423z" style="fill: rgb(3, 90, 161);"></path>
	</g>
</g>
</svg>