<svg xmlns="http://www.w3.org/2000/svg" xmlns:xlink="http://www.w3.org/1999/xlink" version="1.1"  x="0px" y="0px" width="32" height="32" viewBox="0 0 32 32" style="fill: rgb(3, 90, 161);" xml:space="preserve" preserveAspectRatio="none" viewbox="0 0 32 32">
<path d="M6,25h19v1c0,0,0,2-2,2H8c-2,0-2-2-2-2V25z M26,17v7c2,0,2-2,2-2s0-1,0-3S26,17,26,17z M3,19c0,2,0,3,0,3s0,2,2,2v-7  C5,17,3,17,3,19z M25,17v7H6v-7c0-5.17,7.05-5.89,9-5.99V9.95c-1.14-0.23-2-1.24-2-2.45C13,6.12,14.12,5,15.5,5S18,6.12,18,7.5  c0,1.21-0.86,2.22-2,2.45v1.06C17.95,11.11,25,11.83,25,17z M15,19.5c0-1.93-1.57-3.5-3.5-3.5S8,17.57,8,19.5S9.57,23,11.5,23  S15,21.43,15,19.5z M23,19.5c0-1.93-1.57-3.5-3.5-3.5S16,17.57,16,19.5s1.57,3.5,3.5,3.5S23,21.43,23,19.5z M11.5,22  c1.21,0,2.22-0.86,2.45-2h-4.9C9.28,21.14,10.29,22,11.5,22z M11.5,17c-1.21,0-2.22,0.86-2.45,2h4.9C13.72,17.86,12.71,17,11.5,17z   M19.5,22c1.21,0,2.22-0.86,2.45-2h-4.9C17.28,21.14,18.29,22,19.5,22z M19.5,17c-1.21,0-2.22,0.86-2.45,2h4.9  C21.72,17.86,20.71,17,19.5,17z" style="fill: rgb(3, 90, 161);"></path>
</svg>