<svg xmlns="http://www.w3.org/2000/svg" xmlns:xlink="http://www.w3.org/1999/xlink" version="1.1"  x="0px" y="0px" width="32" height="32" viewBox="0 0 24 24" style="enable-background:new 0 0 24 24;" xml:space="preserve" preserveAspectRatio="none" viewbox="0 0 32 32">

<rect class="st1" width="24" height="24" style="fill:none;;"></rect>
<path id="58129031_shock_x5F_color_focus" class="stshockcolor" d="M12.65,10C11.83,7.67,9.61,6,7,6c-3.31,0-6,2.69-6,6c0,3.31,2.69,6,6,6  c2.61,0,4.83-1.67,5.65-4H17v4h4v-4h2v-4H12.65z M7,14c-1.1,0-2-0.9-2-2c0-1.1,0.9-2,2-2s2,0.9,2,2C9,13.1,8.1,14,7,14z" style="fill: rgb(3, 90, 161);" data-st="fill:#FFB300;;"></path>
<path class="st2" d="M23,12v2h-2v4h-4v-4h-4.35c-0.82,2.33-3.04,4-5.65,4c-3.31,0-6-2.69-6-6h4c0,1.1,0.9,2,2,2s2-0.9,2-2H23z" style="opacity:0.4;fill:#FFFFFF;;"></path>
</svg>