<svg xmlns="http://www.w3.org/2000/svg" xmlns:xlink="http://www.w3.org/1999/xlink" version="1.1"  x="0px" y="0px" width="32" height="32" viewBox="0 0 32 32" style="fill: rgb(3, 90, 161);" xml:space="preserve" preserveAspectRatio="none" viewbox="0 0 32 32">
<path d="M20.31,18.9L22,29l-6-4l-6,4l1.69-10.1c0.3,0.159,0.61,0.31,0.93,0.439C13.66,19.77,14.81,20,16,20  c1.19,0,2.34-0.23,3.38-0.66C19.7,19.21,20.01,19.06,20.31,18.9z M16,15c2.21,0,4-1.79,4-4s-1.79-4-4-4s-4,1.79-4,4S13.79,15,16,15z   M8,11c0-4.42,3.58-8,8-8s8,3.58,8,8s-3.58,8-8,8S8,15.42,8,11z M11,11c0,2.76,2.24,5,5,5s5-2.24,5-5s-2.24-5-5-5S11,8.24,11,11z" style="fill: rgb(3, 90, 161);"></path>
</svg>