<svg xmlns="http://www.w3.org/2000/svg" xmlns:xlink="http://www.w3.org/1999/xlink" version="1.1"  x="0px" y="0px" width="32" height="32" viewBox="0 0 24 24" style="fill: rgb(3, 90, 161);" xml:space="preserve" viewbox="0 0 32 32">
<path id="2635350867__x3C_Trazado_x5F_compuesto_x3E_" d="M10,4v2H6V4H10 M20,10v2h-4v-2H20 M20,18v2h-4v-2H20 M8,18v2H4v-2H8 M12,2H4v6h8V6h5  v2h-3v2H7c-2,0-2,2-2,2v4H2v6h8v-2h4v2h8v-6h-8v2h-4v-2H7v-4h7v2h8V8h-3V6c0,0,0-2-2-2h-5V2L12,2z" style="fill: rgb(3, 90, 161);"></path>
</svg>