<svg xmlns="http://www.w3.org/2000/svg" xmlns:xlink="http://www.w3.org/1999/xlink" version="1.1"  x="0px" y="0px" width="32" height="32" viewBox="0 0 64 64" style="enable-background:new 0 0 64 64;" xml:space="preserve" viewbox="0 0 32 32">

<g>
	<defs>
		<path id="573230117_SVGID_1__same" d="M7.751,57c-1.429,0-2.75-0.763-3.464-2c-0.714-1.237-0.714-2.763,0-4l24.25-42c0.714-1.238,2.035-2,3.464-2    l0,0c1.429,0,2.75,0.763,3.464,2l24.247,42c0.715,1.237,0.715,2.763,0,4c-0.714,1.237-2.035,2-3.464,2H7.751z"></path>
	</defs>
	<use xlink:href="#573230117_SVGID_1__same" class="stshockcolor" style="fill:#DE7047;;overflow:visible;" data-st="fill:#DE7047;;overflow:visible;"></use>
	<clipPath id="573230117_SVGID_2__same">
		<use xlink:href="#573230117_SVGID_1__same" style="overflow:visible;"></use>
	</clipPath>
	<g class="st0" style="clip-path:url(#573230117_SVGID_2__same);;">
		<path class="st2" d="M34,39h-4l-2-17h8L34,39z M32,41c-2.485,0-4.5,2.015-4.5,4.5S29.515,50,32,50s4.5-2.015,4.5-4.5    S34.485,41,32,41z" style="fill:#FFFFFF;;"></path>
		<rect x="32" y="6" class="st1" width="28" height="51" style="opacity:0.2;;"></rect>
	</g>
</g>
</svg>