<svg xmlns="http://www.w3.org/2000/svg" xmlns:xlink="http://www.w3.org/1999/xlink" version="1.1"  x="0px" y="0px" width="32" height="32" viewBox="0 0 64 64" style="enable-background:new 0 0 64 64;" xml:space="preserve" preserveAspectRatio="none" viewbox="0 0 32 32">

<g>
	<defs>
		<path id="57870571_SVGID_1__focus" d="M61,34.001l0.001-4l-6.305-1.719c-0.248-1.525-0.646-3-1.179-4.409l4.598-4.639l-1.999-3.465l-6.319,1.664    c-0.967-1.179-2.048-2.261-3.228-3.227l1.663-6.319L44.77,5.885l-4.64,4.598c-1.409-0.533-2.885-0.931-4.411-1.179L34,3h-4    l-1.719,6.304c-1.526,0.248-3,0.646-4.41,1.179l-4.639-4.598l-3.464,2l1.663,6.319c-1.179,0.967-2.26,2.048-3.227,3.227    l-6.319-1.663l-2,3.464l4.598,4.639c-0.533,1.409-0.931,2.884-1.179,4.41L3,30v4l6.304,1.72c0.248,1.525,0.646,3.001,1.179,4.41    l-4.598,4.639l2,3.464l6.32-1.663c0.966,1.18,2.047,2.261,3.227,3.227l-1.663,6.319l3.464,2l4.639-4.598    c1.41,0.532,2.884,0.931,4.41,1.179L30,61h4l1.719-6.304c1.526-0.248,3.001-0.646,4.41-1.179l4.639,4.598l3.465-2l-1.663-6.319    c1.179-0.966,2.26-2.047,3.227-3.227l6.318,1.663l2.001-3.464l-4.598-4.639c0.532-1.409,0.931-2.884,1.179-4.409L61,34.001z"></path>
	</defs>
	<clipPath id="57870571_SVGID_2__focus">
		<use xlink:href="#57870571_SVGID_1__focus" style="overflow:visible;"></use>
	</clipPath>
	<g class="st0" style="clip-path:url(#57870571_SVGID_2__focus);;">
		<rect x="2" y="2" class="stshockcolor" width="60" height="60" style="fill: rgb(3, 90, 161);" data-st="fill:#D993AD;;"></rect>
		<rect x="2" y="2" class="st5" width="30" height="60" style="fill:#75A2D8;;"></rect>
		<polygon class="st3" points="61,33.083 61,61 32,61 32,38.333 45.951,24.394   " style="fill:#231F20;fill-opacity:0.2;;"></polygon>
		<circle class="st3" cx="32" cy="32" r="13.625" style="fill:#231F20;fill-opacity:0.2;;"></circle>
		<g>
			<g>
				<path class="st6" d="M47,24.999l-8-4.619c-0.959-0.554-2.18-0.224-2.732,0.732c-0.552,0.957-0.225,2.18,0.732,2.732l4.949,2.858      c-0.841,0.485-2.02,1.166-3.693,2.132c-2.822,1.629-4.894,3.622-6.256,5.976c-1.363-2.355-3.435-4.348-6.257-5.977      c-1.674-0.966-2.852-1.646-3.692-2.132L27,23.844c0.957-0.552,1.284-1.775,0.732-2.732C27.18,20.156,25.959,19.826,25,20.38      l-8,4.619c-0.619,0.357-1,1.018-1,1.732v9.238c0,1.104,0.896,2,2,2s2-0.896,2-2v-5.832c0.938,0.542,2.182,1.26,3.749,2.165      C27.49,34.461,30,37.927,30,42.848V62h4V42.848c0-4.921,2.518-8.391,6.256-10.549c1.564-0.903,2.807-1.62,3.744-2.162v5.832      c0,1.104,0.896,2,2,2s2-0.896,2-2v-9.238C48,26.017,47.619,25.356,47,24.999z" style="fill:#DEDCD9;;"></path>
			</g>
			<g class="st1" style="opacity:0.5;;">
				<path class="st2" d="M47,24.999l-8-4.619c-0.959-0.554-2.18-0.224-2.732,0.732c-0.552,0.957-0.225,2.18,0.732,2.732l4.949,2.858      c-0.841,0.485-2.02,1.166-3.693,2.132c-2.822,1.629-4.894,3.622-6.256,5.976c-1.363-2.355-3.435-4.348-6.257-5.977      c-1.674-0.966-2.852-1.646-3.692-2.132L27,23.844c0.957-0.552,1.284-1.775,0.732-2.732C27.18,20.156,25.959,19.826,25,20.38      l-8,4.619c-0.619,0.357-1,1.018-1,1.732v9.238c0,1.104,0.896,2,2,2s2-0.896,2-2v-5.832c0.938,0.542,2.182,1.26,3.749,2.165      C27.49,34.461,30,37.927,30,42.848V62h4V42.848c0-4.921,2.518-8.391,6.256-10.549c1.564-0.903,2.807-1.62,3.744-2.162v5.832      c0,1.104,0.896,2,2,2s2-0.896,2-2v-9.238C48,26.017,47.619,25.356,47,24.999z" style="fill:#FFFFFF;;"></path>
			</g>
		</g>
	</g>
</g>
</svg>