<svg xmlns="http://www.w3.org/2000/svg" xmlns:xlink="http://www.w3.org/1999/xlink" version="1.1"  x="0px" y="0px" width="32" height="32" viewBox="0 0 40 40" style="fill: rgb(3, 90, 161);" xml:space="preserve" preserveAspectRatio="none" viewbox="0 0 32 32">
<path d="M20,26l2,2H6l2-2H20z M6,30v2c0,0,0,2,2,2s2-2,2-2s0,2,2,2s2-2,2-2s0,2,2,2s2-2,2-2s0,2,2,2s2-2,2-2v-2H6z M8,11v9l2,2v2h8  v-2l2-2v-4l4,2h4v-2h6c0,0,2,0,2-2s0-2,0-2s0-2-2-2s-14,0-14,0V8l-2-2h-6C12,6,8,7,8,11z" style="fill: rgb(3, 90, 161);"></path>
</svg>