<svg xmlns="http://www.w3.org/2000/svg" xmlns:xlink="http://www.w3.org/1999/xlink" version="1.1"  x="0px" y="0px" width="32" height="32" viewBox="0 0 40 40" enable-background="new 0 0 40 40" xml:space="preserve" preserveAspectRatio="none" style="fill: rgb(3, 90, 161);" viewbox="0 0 32 32">
<g id="553553668_Shape_5_xA0_Clipping_Path_1_">
	<g>
		<path d="M33.5,26.002c-1.932,0-3.498,1.566-3.498,3.498s1.566,3.498,3.498,3.498s3.498-1.566,3.498-3.498    S35.432,26.002,33.5,26.002z M34,19c-0.584-5.583-0.935-9.84-1.41-10.42S31.219,8,29,8h-7.313C20.5,8,19.69,8.538,19.262,9.271    C18.256,10.994,17.459,14.165,15,24h-1V6h-2v15h-2v8H2v1c0,0,4.375,1,8,1h3.275C13.108,30.528,13,30.029,13,29.5    c0-2.485,2.015-4.5,4.5-4.5s4.5,2.015,4.5,4.5c0,0.529-0.108,1.028-0.275,1.5h7.551C29.108,30.528,29,30.029,29,29.5    c0-2.485,2.015-4.5,4.5-4.5s4.5,2.015,4.5,4.5v-9.125C38,19.375,37,19,34,19z M28.285,19c-0.572,0-0.984,0.386-1.322,1    C26.017,21.72,25,24,25,24h-4l-2.314-6.438c1.093-4.243,1.698-6.245,2.304-7.283C21.029,10.209,21.152,10,21.688,10H29    c0.739,0,1.497,0,1.967,0.033c0.232,1.223,0.517,4.015,0.771,6.526L31.991,19H28.285z M17.5,26.002    c-1.932,0-3.498,1.566-3.498,3.498s1.566,3.498,3.498,3.498s3.498-1.566,3.498-3.498S19.432,26.002,17.5,26.002z" style="fill: rgb(3, 90, 161);"></path>
	</g>
</g>
</svg>