<svg xmlns="http://www.w3.org/2000/svg" xmlns:xlink="http://www.w3.org/1999/xlink" version="1.1"  x="0px" y="0px" width="32" height="32" viewBox="0 0 32 32" style="fill: rgb(3, 90, 161);" xml:space="preserve" preserveAspectRatio="none" viewbox="0 0 32 32">
<path d="M24.9,20.46c2.83,2.83,0.71,4.95,0.71,4.95l-2.83-2.83h-2.83v2.83l2.83,2.83c0,0-0.771,0.76-1.99,0.76  c-0.81,0-1.83-0.34-2.96-1.47c-2.12-2.12-1.42-5.66-1.42-5.66l-5.65-5.66c0,0-0.57,0.12-1.38,0.12c-1.23,0-3.01-0.26-4.28-1.53  c-2.83-2.83-0.71-4.95-0.71-4.95l2.83,2.83h2.83V9.85L7.22,7.02c0,0,0.77-0.76,1.99-0.76c0.81,0,1.83,0.34,2.96,1.47  c2.83,2.83,1.42,5.66,1.42,5.66l5.65,5.65c0,0,0.71-0.35,1.77-0.35C22.07,18.69,23.49,19.04,24.9,20.46z M29,8.5  c0,3.03-2.47,5.5-5.5,5.5S18,11.53,18,8.5S20.47,3,23.5,3S29,5.47,29,8.5z M26.89,5.81L26.11,5.19l-3.65,4.56l-1.61-1.6l-0.699,0.7  l2.39,2.4L26.89,5.81z" style="fill: rgb(3, 90, 161);"></path>
</svg>