<svg xmlns="http://www.w3.org/2000/svg" xmlns:xlink="http://www.w3.org/1999/xlink" version="1.1"  x="0px" y="0px" width="32" height="32" viewBox="0 0 40 40" enable-background="new 0 0 40 40" xml:space="preserve" preserveAspectRatio="none" style="fill: rgb(3, 90, 161);" viewbox="0 0 32 32">
<g id="553334070_Shape_5_xA0_Clipping_Path_1_">
	<g>
		<path d="M29,20.051v-1.915C29,14.747,26.296,12,22.961,12H17.04C13.704,12,11,14.747,11,18.136v3.729    C11,25.253,13.704,28,17.04,28h3.162C21.063,23.754,24.614,20.486,29,20.051z M17,10h5V2H2v16h7C9,13.582,12.582,10,17,10z     M29.86,22c-4.52,0-7.86,3.463-7.86,8s3.233,8,7.753,8C34.271,38,38,34.537,38,30S34.379,22,29.86,22z" style="fill: rgb(3, 90, 161);"></path>
	</g>
</g>
</svg>