<svg version="1.1"  xmlns="http://www.w3.org/2000/svg" xmlns:xlink="http://www.w3.org/1999/xlink" x="0px" y="0px" width="32" height="32" viewBox="0 0 40 40" enable-background="new 0 0 40 40" xml:space="preserve" preserveAspectRatio="none" style="fill: rgb(3, 90, 161);" viewbox="0 0 32 32">
<g id="Shape_5_xA0_Clipping_Path_1_">
	<g>
		<path d="M22.815,23.909l-1.231-3.092c0.421-0.472,0.797-0.983,1.118-1.532L26.02,19.5l0.738-2.274l-2.809-1.775
			C23.98,15.137,24,14.821,24,14.5c0-0.321-0.019-0.638-0.05-0.951l2.808-1.775L26.019,9.5l-3.327,0.215
			c-0.32-0.546-0.689-1.061-1.108-1.53l1.231-3.095L20.88,3.685l-2.562,2.127c-0.574-0.252-1.175-0.457-1.802-0.592L15.695,2h-2.391
			l-0.821,3.219c-0.627,0.136-1.229,0.337-1.804,0.59L8.12,3.684L6.186,5.089l1.231,3.092C6.995,8.653,6.619,9.166,6.297,9.714
			L2.981,9.5l-0.739,2.274l2.809,1.776C5.02,13.863,5,14.179,5,14.5s0.018,0.638,0.05,0.951l-2.808,1.775L2.981,19.5l3.327-0.215
			c0.321,0.546,0.689,1.061,1.109,1.531L6.186,23.91l1.934,1.405l2.562-2.127c0.574,0.253,1.175,0.457,1.802,0.593L13.305,27h2.391
			l0.821-3.219c0.627-0.136,1.229-0.338,1.804-0.591l2.561,2.125L22.815,23.909z M14.5,19c-2.485,0-4.5-2.016-4.5-4.5
			s2.015-4.5,4.5-4.5c2.485,0,4.5,2.016,4.5,4.5S16.985,19,14.5,19z M35.382,27.166c-0.146-0.527-0.351-1.046-0.632-1.542
			s-0.62-0.936-0.995-1.328l0.732-2.655l-1.962-1.152l-1.889,1.971c-1.056-0.272-2.175-0.279-3.26,0.001l-1.89-1.972l-1.962,1.152
			l0.732,2.653c-0.78,0.816-1.334,1.807-1.63,2.872l-2.622,0.681v2.307l2.625,0.682c0.147,0.526,0.352,1.045,0.633,1.541
			s0.62,0.936,0.995,1.328l-0.733,2.655l1.962,1.152l1.889-1.971c1.056,0.272,2.175,0.279,3.26-0.001l1.89,1.972l1.962-1.152
			l-0.731-2.653c0.78-0.816,1.334-1.807,1.629-2.872l2.621-0.681v-2.307L35.382,27.166z M29.996,30.735
			c-0.961,0.554-2.188,0.226-2.742-0.733c-0.555-0.958-0.226-2.185,0.734-2.737c0.961-0.554,2.188-0.226,2.742,0.733
			C31.285,28.956,30.957,30.183,29.996,30.735z" style="fill: rgb(3, 90, 161);"></path>
	</g>
</g>
</svg>