<svg xmlns="http://www.w3.org/2000/svg" xmlns:xlink="http://www.w3.org/1999/xlink" version="1.1"  x="0px" y="0px" width="32" height="32" viewBox="0 0 24 24" style="enable-background:new 0 0 24 24;" xml:space="preserve" preserveAspectRatio="none" viewbox="0 0 32 32">

<rect y="0" class="st1" width="24" height="24" style="fill:none;;"></rect>
<path id="583345541_shock_x5F_color" class="stshockcolor" d="M13.45,8.2l-1.53-0.88C11.97,7.06,12,6.78,12,6.5s-0.03-0.56-0.08-0.82l1.53-0.88  c0.24-0.14,0.319-0.44,0.18-0.68l-1-1.74c-0.14-0.24-0.44-0.32-0.68-0.18l-1.53,0.88C10.01,2.72,9.53,2.44,9,2.26V0.5  C9,0.22,8.78,0,8.5,0h-2C6.22,0,6,0.22,6,0.5v1.76C5.47,2.44,4.99,2.72,4.58,3.08L3.05,2.2C2.81,2.06,2.51,2.14,2.37,2.38l-1,1.74  C1.23,4.36,1.31,4.66,1.55,4.8l1.53,0.88C3.03,5.94,3,6.22,3,6.5s0.03,0.56,0.08,0.82L1.55,8.2C1.31,8.34,1.23,8.64,1.37,8.88  l1,1.74c0.14,0.24,0.44,0.32,0.68,0.18l1.53-0.88c0.41,0.36,0.89,0.64,1.42,0.82v1.76C6,12.78,6.22,13,6.5,13h2  C8.78,13,9,12.78,9,12.5v-1.76c0.53-0.18,1.01-0.46,1.42-0.82l1.53,0.88c0.24,0.14,0.54,0.06,0.68-0.18l1-1.74  C13.77,8.64,13.69,8.34,13.45,8.2z M7.5,9C6.12,9,5,7.88,5,6.5S6.12,4,7.5,4S10,5.12,10,6.5S8.88,9,7.5,9z M22.45,19.2l-1.53-0.88  c0.051-0.26,0.08-0.541,0.08-0.82s-0.029-0.561-0.08-0.82l1.53-0.88c0.24-0.14,0.319-0.44,0.18-0.68l-1-1.74  c-0.14-0.239-0.44-0.319-0.68-0.18l-1.53,0.88c-0.41-0.359-0.891-0.641-1.42-0.82V11.5c0-0.28-0.221-0.5-0.5-0.5h-2  c-0.279,0-0.5,0.22-0.5,0.5v1.76c-0.529,0.18-1.01,0.461-1.42,0.82l-1.53-0.88c-0.24-0.14-0.54-0.06-0.68,0.18l-1,1.74  c-0.14,0.239-0.06,0.54,0.18,0.68l1.53,0.88C12.03,16.939,12,17.221,12,17.5s0.03,0.561,0.08,0.82l-1.53,0.88  c-0.24,0.14-0.32,0.44-0.18,0.68l1,1.74c0.14,0.239,0.44,0.319,0.68,0.18l1.53-0.88c0.41,0.359,0.891,0.641,1.42,0.82v1.76  c0,0.279,0.221,0.5,0.5,0.5h2c0.279,0,0.5-0.221,0.5-0.5v-1.76c0.529-0.18,1.01-0.461,1.42-0.82l1.53,0.88  c0.239,0.14,0.54,0.06,0.68-0.18l1-1.74C22.77,19.641,22.69,19.34,22.45,19.2z M16.5,20c-1.38,0-2.5-1.12-2.5-2.5s1.12-2.5,2.5-2.5  s2.5,1.12,2.5,2.5S17.88,20,16.5,20z" style="fill: rgb(3, 90, 161);"></path>
<path class="st0" d="M13.45,8.2l-1.53-0.88C11.97,7.06,12,6.78,12,6.5s-0.03-0.56-0.08-0.82l1.53-0.88  c0.24-0.14,0.319-0.44,0.18-0.68l-1-1.74c-0.14-0.24-0.44-0.32-0.68-0.18l-1.53,0.88C10.01,2.72,9.53,2.44,9,2.26V0.5  C9,0.22,8.78,0,8.5,0h-2C6.22,0,6,0.22,6,0.5v1.76C5.47,2.44,4.99,2.72,4.58,3.08L3.05,2.2C2.81,2.06,2.51,2.14,2.37,2.38l-1,1.74  C1.23,4.36,1.31,4.66,1.55,4.8l1.53,0.88C3.03,5.94,3,6.22,3,6.5s0.03,0.56,0.08,0.82L1.55,8.2C1.31,8.34,1.23,8.64,1.37,8.88  l1,1.74c0.14,0.24,0.44,0.32,0.68,0.18l1.53-0.88c0.41,0.36,0.89,0.64,1.42,0.82v1.76C6,12.78,6.22,13,6.5,13h2  C8.78,13,9,12.78,9,12.5v-1.76c0.53-0.18,1.01-0.46,1.42-0.82l1.53,0.88c0.24,0.14,0.54,0.06,0.68-0.18l1-1.74  C13.77,8.64,13.69,8.34,13.45,8.2z M7.5,9C6.12,9,5,7.88,5,6.5S6.12,4,7.5,4S10,5.12,10,6.5S8.88,9,7.5,9z" style="opacity:0.2;fill:#FFFFFF;;"></path>
</svg>