<svg xmlns="http://www.w3.org/2000/svg" xmlns:xlink="http://www.w3.org/1999/xlink" version="1.1"  x="0px" y="0px" width="32" height="32" viewBox="0 0 40 40" enable-background="new 0 0 40 40" xml:space="preserve" preserveAspectRatio="none" style="fill: rgb(3, 90, 161);" viewbox="0 0 32 32">
<g id="554353565_Shape_5_xA0_Clipping_Path_1_">
	<g>
		<path d="M33.5,8h-18C15.224,8,15,8.224,15,8.5v2c0,0.276,0.224,0.5,0.5,0.5h18c0.276,0,0.5-0.224,0.5-0.5v-2    C34,8.224,33.776,8,33.5,8z M33.5,20h-18c-0.276,0-0.5,0.224-0.5,0.5v2c0,0.276,0.224,0.5,0.5,0.5h18c0.276,0,0.5-0.224,0.5-0.5    v-2C34,20.224,33.776,20,33.5,20z M33.5,32h-18c-0.276,0-0.5,0.224-0.5,0.5v2c0,0.276,0.224,0.5,0.5,0.5h18    c0.276,0,0.5-0.224,0.5-0.5v-2C34,32.224,33.776,32,33.5,32z M9,12h2V3H9L7,4v2l2-1V12z M12,18c0-1.475-1.181-3-3.157-3    c-1.305,0-2.229,0.693-2.919,1.251L6.638,18c0.565-0.447,1.183-1,2.205-1C9.638,17,10,17.519,10,18    c0,0.686-0.397,1.071-1.486,2.264C6.595,22.364,6,23,6,23v1h6l1-2H9.531C10.867,20.426,12,19.764,12,18z M6,29h3.729    c0,0-0.063,0.713-1.729,1v1.771c1.25,0,2,0.417,2,1.229c0,0.646-0.5,1-1.292,1C7.104,34,6,33,6,33v2c0,0,1,1,3,1s3-1.292,3-3.063    c0-1.854-1.308-2.4-1.308-2.4S12,29.854,12,28.59V27H6V29z" style="fill: rgb(3, 90, 161);"></path>
	</g>
</g>
</svg>