<svg xmlns="http://www.w3.org/2000/svg" xmlns:xlink="http://www.w3.org/1999/xlink" class="addmask" version="1.1"  x="0px" y="0px" width="32" height="32" viewBox="0 0 40 40" enable-background="new 0 0 40 40" xml:space="preserve" style="fill: rgb(3, 90, 161);" viewbox="0 0 32 32">
<g class="addon_content" transform="translate(-10,-13) scale(1,1)">
	<g>
		<defs>
			<path class="mask_container" id="55_gear_mask" d="M-30-30V90H90V-30H-30z M39.52,31.13c0.4,0.24,0.58,0.73,0.431,1.17L39.41,33.9    c-0.141,0.409-0.521,0.68-0.95,0.68c-0.02,0-1.82-0.11-1.82-0.11c-0.08,0.12-0.17,0.25-0.27,0.37l0.649,1.57    c0.171,0.43,0.03,0.92-0.35,1.189l-1.39,0.99c-0.17,0.13-0.38,0.19-0.58,0.19c-0.23,0-0.45-0.08-0.641-0.23l-1.27-1.05    c-0.18,0.07-0.37,0.13-0.56,0.19l-0.4,1.56C31.71,39.69,31.32,40,30.86,40H29.14c-0.46,0-0.85-0.31-0.97-0.75l-0.4-1.56    c-0.189-0.061-0.38-0.12-0.56-0.19l-1.27,1.05c-0.19,0.15-0.41,0.23-0.641,0.23c-0.2,0-0.41-0.061-0.58-0.19l-1.39-0.99    c-0.38-0.27-0.521-0.76-0.35-1.189l0.649-1.57c-0.1-0.12-0.189-0.25-0.27-0.37c0,0-1.801,0.11-1.82,0.11    c-0.43,0-0.81-0.271-0.95-0.68L20.05,32.3c-0.15-0.439,0.03-0.93,0.43-1.17l1.51-0.93v-0.4l-1.51-0.93    c-0.4-0.24-0.58-0.73-0.43-1.17l0.54-1.601c0.14-0.409,0.521-0.68,0.95-0.68c0.02,0,1.82,0.11,1.82,0.11    c0.08-0.12,0.17-0.25,0.27-0.37l-0.649-1.57c-0.171-0.43-0.03-0.92,0.35-1.189l1.39-0.99c0.17-0.13,0.38-0.19,0.58-0.19    c0.23,0,0.45,0.08,0.641,0.23l1.27,1.05c0.18-0.07,0.37-0.13,0.56-0.19l0.4-1.56c0.12-0.44,0.51-0.75,0.97-0.75h1.721    c0.46,0,0.85,0.31,0.97,0.75l0.4,1.56c0.189,0.061,0.38,0.12,0.56,0.19l1.27-1.05c0.19-0.15,0.41-0.23,0.641-0.23    c0.2,0,0.41,0.061,0.58,0.19l1.39,0.99c0.38,0.27,0.521,0.76,0.35,1.189l-0.649,1.57c0.1,0.12,0.189,0.25,0.27,0.37    c0,0,1.801-0.11,1.82-0.11c0.43,0,0.81,0.271,0.95,0.68l0.54,1.601c0.149,0.439-0.03,0.93-0.431,1.17l-1.51,0.93v0.4L39.52,31.13z    " transform="translate(-10,-13) scale(1,1)" style="fill: rgb(3, 90, 161);"></path>
		</defs>
		<clipPath id="55_gear_mask_1_">
			<use xlink:href="#55_gear_mask" overflow="visible"></use>
		</clipPath>
		
	</g>
	<path id="55_gear_addon" fill-rule="evenodd" clip-rule="evenodd" d="M37.01,30c0-0.25-0.01-0.49-0.04-0.73L39,28.02l-0.54-1.6l-2.35,0.15  c-0.25-0.44-0.54-0.851-0.891-1.23l0.87-2.13l-1.39-0.99l-1.75,1.44c-0.48-0.24-1-0.41-1.54-0.521L30.86,21H29.14l-0.55,2.14  c-0.54,0.11-1.06,0.28-1.54,0.521l-1.75-1.44l-1.39,0.99l0.87,2.13c-0.351,0.38-0.641,0.79-0.891,1.23l-2.35-0.15L21,28.02  l2.03,1.25C23,29.51,22.99,29.75,22.99,30s0.01,0.49,0.04,0.73L21,31.98l0.54,1.6l2.35-0.15c0.25,0.44,0.54,0.851,0.891,1.23  l-0.87,2.13l1.39,0.99l1.75-1.44c0.48,0.24,1,0.41,1.54,0.521L29.14,39h1.721l0.55-2.14c0.54-0.11,1.06-0.28,1.54-0.521l1.75,1.44  l1.39-0.99l-0.87-2.13c0.351-0.38,0.641-0.79,0.891-1.23l2.35,0.15l0.54-1.6l-2.03-1.25C37,30.49,37.01,30.25,37.01,30z M30,33  c-1.66,0-3-1.34-3-3s1.34-3,3-3s3,1.34,3,3S31.66,33,30,33z" style="fill: rgb(3, 90, 161);"></path>
</g>
<g id="55_gear_icon_placeholder" clip-path="url(#55_gear_mask_1_)">
<g class="icnplhld">
                	  	<!--?xml version="1.0" encoding="utf-8"?-->
<!-- Generator: Adobe Illustrator 15.0.0, SVG Export Plug-In . SVG Version: 6.00 Build 0)  -->

<g xmlns="http://www.w3.org/2000/svg" xmlns:xlink="http://www.w3.org/1999/xlink" version="1.1" x="0px" y="0px" width="40px" height="40px" viewBox="0 0 40 40" enable-background="new 0 0 40 40" xml:space="preserve" preserveAspectRatio="none" class="svgmask">
<g id="55152595_Shape_5_xA0_Clipping_Path_2_">
	<g>
		<path d="M36,4H4C2.896,4,2,4.896,2,6v23c0,1.104,0.896,2,2,2h32c1.104,0,2-0.896,2-2V6C38,4.896,37.104,4,36,4z M35,25.5    c0,0.828-0.672,1.5-1.5,1.5h-27C5.671,27,5,26.328,5,25.5v-17C5,7.671,5.671,7,6.5,7h27C34.328,7,35,7.671,35,8.5V25.5z     M31.16,36.237C30.151,35.762,25,34,25,34H15c0,0-5.155,1.763-6.164,2.24C8.263,36.511,8,36.84,8,37.308    C8,37.849,8.438,38,9.104,38h21.792C31.563,38,32,37.849,32,37.308C32,36.839,31.736,36.51,31.16,36.237z" style="fill: rgb(3, 90, 161);"></path>
	</g>
</g>
</g>
  
                	</g>
</g>
</svg>