<svg xmlns="http://www.w3.org/2000/svg" xmlns:xlink="http://www.w3.org/1999/xlink" version="1.1"  x="0px" y="0px" width="32" height="32" viewBox="0 0 40 40" enable-background="new 0 0 40 40" xml:space="preserve" preserveAspectRatio="none" style="fill: rgb(3, 90, 161);" viewbox="0 0 32 32">
<g id="55152626_Shape_5_xA0_Clipping_Path_1_">
	<g>
		<path d="M36.585,16.302c-0.786-3.536-2.68-6.648-5.286-8.978l-8.916,10.427L36.585,16.302z M29.735,6.076    C26.979,4.142,23.625,3,20,3C13.584,3,8.003,6.557,5.108,11.804L19.71,17.8L29.735,6.076z M36.913,18.279l-17.061,1.742    L4.251,13.613C3.451,15.586,3,17.739,3,20c0,9.389,7.611,17,17,17s17-7.611,17-17C37,19.419,36.97,18.845,36.913,18.279z" style="fill: rgb(3, 90, 161);"></path>
	</g>
</g>
</svg>