<svg xmlns="http://www.w3.org/2000/svg" xmlns:xlink="http://www.w3.org/1999/xlink" class="addmask" version="1.1"  x="0px" y="0px" width="32" height="32" viewBox="0 0 24 24" enable-background="new 0 0 24 24" xml:space="preserve" viewbox="0 0 32 32">
<g id="58_warning_icon_placeholder" class="icnplhld"><!--?xml version="1.0" encoding="utf-8"?-->
<!-- Generator: Adobe Illustrator 16.0.0, SVG Export Plug-In . SVG Version: 6.00 Build 0)  -->
<g xmlns="http://www.w3.org/2000/svg" xmlns:xlink="http://www.w3.org/1999/xlink" version="1.1" x="0px" y="0px" width="24px" height="24px" viewBox="0 0 24 24" style="enable-background:new 0 0 24 24;" xml:space="preserve" preserveAspectRatio="none" class="svgmask">

<path id="585290934_shock_x5F_color_focus" class="stshockcolor" d="M22,11v11H2v-9l5-2v2l5-2V7h2v5.2l2-0.8l0,0L17,2h2l1,9.8l0,0L22,11z" style="fill: rgb(3, 90, 161);"></path>
<path class="st2" d="M12,13V7h2v5.2L12,13z M17,11v2l3-1.2l0,0L19,2h-2l-1,9.4l0,0L17,11z" style="opacity:0.4;;"></path>
<path class="st1" d="M7,19H5v-2h2V19z M11,17H9v2h2V17z M15,17h-2v2h2V17z M19,17h-2v2h2V17z" style="fill:#B3E5FC;;"></path>

  
           </g></g>
<g class="addon_content" viewBox="0 0 24 24" transform="translate(-9,-9) scale(0.8,0.8)">
	<polygon fill="#FFA000" points="12,24 24,24 18,12  "></polygon>
	<rect x="17" y="16" fill="#37474F" width="2" height="4"></rect>
	<rect x="17" y="21" fill="#37474F" width="2" height="2"></rect>
	<rect y="0" fill="none" width="24" height="24"></rect>
</g>
</svg>