<svg xmlns="http://www.w3.org/2000/svg" xmlns:xlink="http://www.w3.org/1999/xlink" class="addmask" version="1.1"  x="0px" y="0px" width="32" height="32" viewBox="0 0 24 24" enable-background="new 0 0 24 24" xml:space="preserve" viewbox="0 0 32 32">
<g id="58_gear_icon_placeholder" class="icnplhld">
                	  	<!--?xml version="1.0" encoding="utf-8"?-->
<!-- Generator: Adobe Illustrator 16.0.0, SVG Export Plug-In . SVG Version: 6.00 Build 0)  -->

<g xmlns="http://www.w3.org/2000/svg" xmlns:xlink="http://www.w3.org/1999/xlink" version="1.1" x="0px" y="0px" width="24px" height="24px" viewBox="0 0 24 24" style="enable-background:new 0 0 24 24;" xml:space="preserve" preserveAspectRatio="none" class="svgmask">

<rect class="st1" width="24" height="24" style="fill:none;;"></rect>
<path id="582845382_shock_x5F_color" class="stshockcolor" d="M10,7.5v9l6-4.5L10,7.5z M10,7.5v9l6-4.5L10,7.5z M10,7.5v9l6-4.5L10,7.5z M12,2h-0.04  C6.46,2.02,2,6.49,2,12s4.46,9.98,9.96,10H12c5.52,0,10-4.48,10-10C22,6.48,17.52,2,12,2z M12,20h-0.04C7.57,19.98,4,16.4,4,12  c0-4.4,3.57-7.98,7.96-8H12c4.41,0,8,3.59,8,8S16.41,20,12,20z M10,16.5l6-4.5l-6-4.5V16.5z M10,7.5v9l6-4.5L10,7.5z" style="fill: rgb(3, 90, 161);" data-st="fill:#43A047;;"></path>
<path class="st0" d="M22,12c0,5.52-4.48,10-10,10v-2c4.41,0,8-3.59,8-8s-3.59-8-8-8V2C17.52,2,22,6.48,22,12z" style="opacity:0.25;fill:#FFFFFF;;"></path>
</g>
  
                	</g>
<g class="addon_content" viewBox="0 0 24 24">
	<path fill="#455A64" d="M23.15,19.45l-1.17-0.671C22,18.689,22,18.59,22,18.5s0-0.189-0.02-0.279l1.17-0.671   c0.858-0.5,0.358-1.37,0.358-1.37l-0.5-0.859c-0.5-0.869-1.358-0.369-1.358-0.369l-1.17,0.67c-0.15-0.11-0.312-0.2-0.48-0.271V14   c0-1-1-1-1-1h-1c-1,0-1,1-1,1v1.35c-0.17,0.07-0.33,0.16-0.48,0.271l-1.17-0.67c-0.858-0.5-1.358,0.369-1.358,0.369l-0.5,0.859   c-0.5,0.87,0.358,1.37,0.358,1.37l1.17,0.671C15,18.311,15,18.41,15,18.5s0,0.189,0.02,0.279l-1.17,0.671   c-0.858,0.5-0.358,1.37-0.358,1.37l0.5,0.859c0.5,0.869,1.358,0.369,1.358,0.369l1.17-0.67c0.15,0.11,0.312,0.2,0.48,0.271V23   c0,1,1,1,1,1h1c1,0,1-1,1-1v-1.35c0.17-0.07,0.33-0.16,0.48-0.271l1.17,0.67c0.858,0.5,1.358-0.369,1.358-0.369l0.5-0.859   C24.01,19.95,23.15,19.45,23.15,19.45z M18.5,20c-0.83,0-1.5-0.67-1.5-1.5s0.67-1.5,1.5-1.5s1.5,0.67,1.5,1.5S19.33,20,18.5,20z"></path>
	<rect fill="none" width="24" height="24"></rect>
</g>
</svg>