<svg xmlns="http://www.w3.org/2000/svg" xmlns:xlink="http://www.w3.org/1999/xlink" class="addmask" version="1.1"  x="0px" y="0px" width="32" height="32" viewBox="0 0 40 40" enable-background="new 0 0 40 40" xml:space="preserve" style="fill: rgb(3, 90, 161);" viewbox="0 0 32 32">
<g class="addon_content">
	<g>
		<defs>
			<path class="mask_container" id="55_cancel_mask" d="M-29.5-29.5v120h120v-120H-29.5z M30.5,40c-5.25,0-9.5-4.25-9.5-9.5s4.25-9.5,9.5-9.5s9.5,4.25,9.5,9.5    S35.75,40,30.5,40z" transform="translate(0,0)" style="fill: rgb(3, 90, 161);"></path>
		</defs>
		<clipPath id="55_cancel_mask_1_">
			<use xlink:href="#55_cancel_mask" overflow="visible"></use>
		</clipPath>
		
	</g>
	<path id="55_cancel_addon" d="M30.5,22c-4.69,0-8.5,3.81-8.5,8.5s3.81,8.5,8.5,8.5s8.5-3.81,8.5-8.5S35.19,22,30.5,22z M27.06,36.06  L24.94,33.94l9-9l2.119,2.119L27.06,36.06z" style="fill: rgb(3, 90, 161);"></path>
</g>
<g id="55_cancel_icon_placeholder" clip-path="url(#55_cancel_mask_1_)">
	<g class="icnplhld"><!--?xml version="1.0" encoding="utf-8"?-->
<!-- Generator: Adobe Illustrator 15.0.0, SVG Export Plug-In . SVG Version: 6.00 Build 0)  -->

<g xmlns="http://www.w3.org/2000/svg" xmlns:xlink="http://www.w3.org/1999/xlink" version="1.1" x="0px" y="0px" width="40px" height="40px" viewBox="0 0 40 40" enable-background="new 0 0 40 40" xml:space="preserve" preserveAspectRatio="none" class="svgmask">
<g id="55152633_Shape_5_xA0_Clipping_Path_1_">
	<g>
		<path d="M20,25c5.929,0,9-8.295,9-12S28.893,2,20,2c-8.893,0-9,7.295-9,11S14.071,25,20,25z M34.821,28.893    c-2.224-1.481-8.893-4.446-8.893-4.446S23.784,27,20,27s-5.929-2.554-5.929-2.554s-6.669,2.965-8.893,4.446    C2.956,30.375,2,38,2,38h36C38,38,37.438,30.637,34.821,28.893z" style="fill: rgb(3, 90, 161);"></path>
	</g>
</g>
</g></g>
</g>
</svg>