<svg xmlns="http://www.w3.org/2000/svg" xmlns:xlink="http://www.w3.org/1999/xlink" version="1.1"  x="0px" y="0px" width="32" height="32" viewBox="0 0 24 24" style="enable-background:new 0 0 24 24;" xml:space="preserve" preserveAspectRatio="none" viewbox="0 0 32 32">

<rect class="st1" width="24" height="24" style="fill:none;;"></rect>
<path id="585341909_shock_x5F_color" class="stshockcolor" d="M20,20c0,1.104-0.896,2-2,2H6c-1.104,0-2-0.896-2-2V4c0-1.104,0.896-2,2-2h8l6,6V20z" style="fill: rgb(3, 90, 161);" data-st="fill:#43A047;;"></path>
<path class="st0" d="M16,8c-1.1,0-1.99-0.9-1.99-2L14,2H6C4.9,2,4,2.9,4,4v16c0,1.1,0.9,2,2,2h5v-8.59l-2.29,2.3l-1.42-1.42L12,9.59  l4.71,4.7l-1.42,1.42L13,13.41V22h5c1.1,0,2-0.9,2-2V8H16z" style="opacity:0.6;fill:#FFFFFF;;"></path>
</svg>