<svg xmlns="http://www.w3.org/2000/svg" xmlns:xlink="http://www.w3.org/1999/xlink" class="addmask" version="1.1" x="0px" y="0px" width="32" height="32" viewBox="0 0 40 40" enable-background="new 0 0 40 40" xml:space="preserve"  style="fill: rgb(3, 90, 161);" viewbox="0 0 32 32">
<g class="addon_content">
	<g>
		<defs>
			<path class="mask_container" id="55_delete_mask" d="M-29.5-29.5v120h120v-120H-29.5z M30.5,40c-5.25,0-9.5-4.25-9.5-9.5s4.25-9.5,9.5-9.5s9.5,4.25,9.5,9.5    S35.75,40,30.5,40z" transform="translate(0,0)" style="fill: rgb(3, 90, 161);"></path>
		</defs>
		<clipPath id="55_delete_mask_1_">
			<use xlink:href="#55_delete_mask" overflow="visible"></use>
		</clipPath>
		
	</g>
	<path id="55_delete_addon" d="M30.5,22c-4.69,0-8.5,3.81-8.5,8.5s3.81,8.5,8.5,8.5s8.5-3.81,8.5-8.5S35.19,22,30.5,22z M36,32H25v-3h11V32z" style="fill: rgb(3, 90, 161);"></path>
</g>
<g id="55_delete_icon_placeholder" clip-path="url(#55_delete_mask_1_)">
	<g class="icnplhld"><!--?xml version="1.0" encoding="utf-8"?-->
<!-- Generator: Adobe Illustrator 15.0.0, SVG Export Plug-In . SVG Version: 6.00 Build 0)  -->

<g xmlns="http://www.w3.org/2000/svg" xmlns:xlink="http://www.w3.org/1999/xlink" version="1.1" x="0px" y="0px" width="40px" height="40px" viewBox="0 0 40 40" enable-background="new 0 0 40 40" xml:space="preserve" preserveAspectRatio="none" class="svgmask">
<g id="55851661_Shape_5_xA0_Clipping_Path_1_">
	<g>
		<polygon points="2,6 18,26 18,38 22,38 22,26 37,6   " style="fill: rgb(3, 90, 161);"></polygon>
	</g>
</g>
</g></g>
</g>
</svg>