<svg xmlns="http://www.w3.org/2000/svg" xmlns:xlink="http://www.w3.org/1999/xlink" version="1.1"  x="0px" y="0px" width="32" height="32" viewBox="0 0 40 40" enable-background="new 0 0 40 40" xml:space="preserve" style="fill: rgb(3, 90, 161);" viewbox="0 0 32 32">
<g id="555334264_Shape_5_xA0_Clipping_Path_1_">
	<g>
		<path d="M32.26,13.969l-1.503,1.503c0.655,1.392,1.072,2.918,1.195,4.528H30v2h1.949C31.463,28.38,26.379,33.465,20,33.952V32h-2    v1.952C11.621,33.465,6.537,28.38,6.051,22H8v-2H6.051C6.537,13.62,11.621,8.535,18,8.048V10h2V8.051    c1.609,0.123,3.136,0.54,4.527,1.194l1.504-1.504l-3.485-3.365C21.401,4.133,20.217,4,19,4C9.611,4,2,11.611,2,21s7.611,17,17,17    s17-7.611,17-17c0-1.217-0.133-2.402-0.376-3.546L32.26,13.969z M19,12c-0.552,0-1,0.447-1,1l-0.468,6.65    C17.205,20.007,17,20.478,17,21c0,1.104,0.896,2,2,2c0.542,0,1.032-0.218,1.393-0.568L25,22c0.553,0,1-0.447,1-1s-0.447-1-1-1    l-4.538-0.425L20,13C20,12.447,19.552,12,19,12z M24,3l4.885,4.716L24,12.6l3.4,3.4l4.885-4.885L37,16l1-14L24,3z" style="fill: rgb(3, 90, 161);"></path>
	</g>
</g>
</svg>