<svg version="1.1"  xmlns="http://www.w3.org/2000/svg" xmlns:xlink="http://www.w3.org/1999/xlink" x="0px" y="0px" width="32" height="32" viewBox="0 0 32 32" style="fill: rgb(3, 90, 161);" xml:space="preserve" viewbox="0 0 32 32">
<path d="M26,3H10C8,3,8,5,8,5v2.67L13,11l-5,3.33V27c0,2,2,2,2,2h16c2,0,2-2,2-2V5C28,3,26,3,26,3z M20,24h-9v-1h9V24z M20,21h-9v-1
	h9V21z M20,18h-9v-1h9V18z M20,15h-9v-1h9V15z M20,12h-6v-1h6V12z M20,9h-8V8h8V9z M25,24h-3v-1h3V24z M25,21h-3v-1h3V21z M25,18h-3
	v-1h3V18z M25,15h-3v-1h3V15z M25,12h-3v-1h3V12z M25,9h-3V8h3V9z M11.2,11L5,15.13V6.87L11.2,11z" style="fill: rgb(3, 90, 161);"></path>
</svg>