<svg xmlns="http://www.w3.org/2000/svg" xmlns:xlink="http://www.w3.org/1999/xlink" version="1.1"  x="0px" y="0px" width="32" height="32" viewBox="0 0 24 24" style="enable-background:new 0 0 24 24;" xml:space="preserve" preserveAspectRatio="none" viewbox="0 0 32 32">

<rect class="st1" width="24" height="24" style="fill:none;;"></rect>
<path id="582845382_shock_x5F_color" class="stshockcolor" d="M10,7.5v9l6-4.5L10,7.5z M10,7.5v9l6-4.5L10,7.5z M10,7.5v9l6-4.5L10,7.5z M12,2h-0.04  C6.46,2.02,2,6.49,2,12s4.46,9.98,9.96,10H12c5.52,0,10-4.48,10-10C22,6.48,17.52,2,12,2z M12,20h-0.04C7.57,19.98,4,16.4,4,12  c0-4.4,3.57-7.98,7.96-8H12c4.41,0,8,3.59,8,8S16.41,20,12,20z M10,16.5l6-4.5l-6-4.5V16.5z M10,7.5v9l6-4.5L10,7.5z" style="fill: rgb(3, 90, 161);" data-st="fill:#43A047;;"></path>
<path class="st0" d="M22,12c0,5.52-4.48,10-10,10v-2c4.41,0,8-3.59,8-8s-3.59-8-8-8V2C17.52,2,22,6.48,22,12z" style="opacity:0.25;fill:#FFFFFF;;"></path>
</svg>