<svg xmlns="http://www.w3.org/2000/svg" xmlns:xlink="http://www.w3.org/1999/xlink" version="1.1"  x="0px" y="0px" width="32" height="32" viewBox="0 0 40 40" enable-background="new 0 0 40 40" xml:space="preserve" preserveAspectRatio="none" style="fill: rgb(3, 90, 161);" viewbox="0 0 32 32">
<g id="55152556_Shape_5_xA0_Clipping_Path_1_">
	<g>
		<path d="M26,8h-4v8h4V8z M30,5H7C6,5,5,6,5,7v26c0,1,1,2,2,2h26c1,0,2-1,2-2V10L30,5z M12,7h16v8c0,1-1,2-2,2H14c-1,0-2-1-2-2V7z     M29,33H11v-9c0-1,1-2,2-2h14c1,0,2,1,2,2V33z" style="fill: rgb(3, 90, 161);"></path>
	</g>
</g>
</svg>