<svg version="1.1"  xmlns="http://www.w3.org/2000/svg" xmlns:xlink="http://www.w3.org/1999/xlink" x="0px" y="0px" width="32" height="32" viewBox="0 0 24 24" style="enable-background:new 0 0 24 24;" xml:space="preserve" preserveAspectRatio="none" viewbox="0 0 32 32">
<path id="shock_x5F_color" class="stshockcolor" style="fill: rgb(3, 90, 161);" d="M21,23H4V3h17V23z" data-st="fill:#A1887F;"></path>
<path style="opacity:0.6;fill:#FFFFFF;" d="M6,21h13V5H6V21z"></path>
<path style="fill:#757575;" d="M18,3.586V7H7V3.586L9.586,1h5.828L18,3.586z"></path>
<path style="opacity:0.2;fill:#FFFFFF;" d="M12.5,7H7V3.586L9.586,1H12.5V7z"></path>
<path style="opacity:0.7;" d="M17,12h-4v-2h4V12z M11.53,9.53L10.47,8.47L8.989,9.951L8.05,9.052l-1.037,1.083l1.999,1.914
	L11.53,9.53z M17,15h-4v2h4V15z M11,14H8v3h3V14z"></path>
</svg>