<svg xmlns="http://www.w3.org/2000/svg" xmlns:xlink="http://www.w3.org/1999/xlink" version="1.1"  x="0px" y="0px" width="32" height="32" viewBox="0 0 64 64" style="enable-background:new 0 0 64 64;" xml:space="preserve" preserveAspectRatio="none" viewbox="0 0 32 32">

<g>
	<defs>
		<path id="575339254_SVGID_1_" d="M55.951,46.361C54.122,44.529,42.558,34.79,30.5,24.667c0.953-1.85,1.5-3.943,1.5-6.167    C32,11.044,25.957,5,18.5,5c-1.506,0-2.949,0.257-4.302,0.712l8.784,8.784l-1.792,6.692l-6.693,1.793l-8.785-8.785    C5.257,15.551,5,16.994,5,18.5C5,25.956,11.044,32,18.5,32c2.207,0,4.284-0.541,6.124-1.479    c10.135,12.05,19.871,23.635,21.702,25.466c2.657,2.658,6.968,2.658,9.626,0.002C58.609,53.33,58.61,49.02,55.951,46.361z"></path>
	</defs>
	<clipPath id="575339254_SVGID_2_">
		<use xlink:href="#575339254_SVGID_1_" style="overflow:visible;"></use>
	</clipPath>
	<polygon class="st3" points="65.309,56.369 16.383,67.686 -1.175,6.021 47.751,-5.295  " style="clip-path:url(#575339254_SVGID_2_);fill-rule:evenodd;clip-rule:evenodd;fill:#535368;;"></polygon>
	
		<rect x="30.608" y="-5.261" transform="matrix(-0.707 0.7072 -0.7072 -0.707 83.8295 20.6586)" class="st4" width="14.054" height="65.913" style="opacity:0.15;clip-path:url(#575339254_SVGID_2_);fill-rule:evenodd;clip-rule:evenodd;fill:#FFFFFF;;"></rect>
</g>
<g>
	<defs>
		<path id="575339254_SVGID_3_" d="M58.142,9.858c0,1-5,10-6,10s-4,0-4,0L12.35,55.65l-4-4l35.792-35.792c0,0,0-3,0-4s9-6,10-6    S58.142,8.858,58.142,9.858z"></path>
	</defs>
	<use xlink:href="#575339254_SVGID_3_" style="overflow:visible;fill:#A6A69F;"></use>
	<clipPath id="575339254_SVGID_4_">
		<use xlink:href="#575339254_SVGID_3_" style="overflow:visible;"></use>
	</clipPath>
	<rect x="44.142" y="3.858" class="st1" width="16" height="23" style="opacity:0.3;clip-path:url(#575339254_SVGID_4_);fill:#FFFFFF;;"></rect>
</g>
<g>
	<defs>
		<path id="575339254_SVGID_5_" d="M17.869,57.445c-0.781,0.78-3.536,2.121-8.485-2.829c-4.95-4.949-3.609-7.704-2.829-8.485l11.729-11.728    c0,0,2.456,0.614,3.656-0.587c1.201-1.2,0.586-3.656,0.586-3.656l3.818-3.818l11.313,11.313l-3.818,3.818    c0,0-2.455-0.614-3.655,0.586c-1.201,1.2-0.587,3.656-0.587,3.656L17.869,57.445z"></path>
	</defs>
	<use xlink:href="#575339254_SVGID_5_" class="stshockcolor" style="fill: rgb(217, 154, 87); overflow: visible;" data-st="fill:#EA7A2F;;overflow:visible;"></use>
	<clipPath id="575339254_SVGID_6_">
		<use xlink:href="#575339254_SVGID_5_" style="overflow:visible;"></use>
	</clipPath>
	<g class="st5" style="clip-path:url(#575339254_SVGID_6_);;">
		
			<rect x="16.915" y="35.292" transform="matrix(0.7071 0.7071 -0.7071 0.7071 34.8133 -7.4624)" class="st2" width="18.999" height="6" style="opacity:0.15;;"></rect>
		<path class="st2" d="M10.091,57.879c-1.172,1.172-1.172,3.072,0,4.243c1.171,1.171,3.071,1.171,4.242,0    c1.061-1.061,9.96-9.96,11.021-11.021c1.171-1.172,1.171-3.072,0-4.243c-1.172-1.171-3.072-1.171-4.243,0    C20.051,47.919,11.151,56.818,10.091,57.879z" style="opacity:0.15;;"></path>
		<path class="st0" d="M1.878,49.667c-1.171,1.171-1.171,3.071,0,4.242s3.071,1.171,4.242,0c1.062-1.061,9.961-9.96,11.021-11.021    c1.171-1.171,1.171-3.071,0-4.243c-1.172-1.171-3.071-1.171-4.243,0C11.838,39.706,2.938,48.606,1.878,49.667z" style="opacity:0.3;fill:#FFFFFF;;"></path>
	</g>
</g>
</svg>