<svg xmlns="http://www.w3.org/2000/svg" xmlns:xlink="http://www.w3.org/1999/xlink" version="1.1" x="0px" y="0px" width="32" height="32" viewBox="0 0 40 40" enable-background="new 0 0 40 40" xml:space="preserve" preserveAspectRatio="none" class="svgmask" style="fill: rgb(3, 90, 161);"  viewbox="0 0 32 32">
<g id="55952132_Shape_5_xA0_Clipping_Path_1__focus">
	<g>
		<path d="M2,4v32h35V4H2z M13,34H4v-6h9V34z M13,26H4v-6h9V26z M13,18H4v-6h9V18z M13,5h2v6h-2V5z M24,34h-9v-6h9V34z M24,26h-9v-6    h9V26z M24,18h-9v-6h9V18z M24,5h2v6h-2V5z M35,34h-9v-6h9V34z M35,26h-9v-6h9V26z M35,18h-9v-6h9V18z" style="fill: rgb(3, 90, 161);"></path>
	</g>
</g>

  
            </svg>