<svg xmlns="http://www.w3.org/2000/svg" xmlns:xlink="http://www.w3.org/1999/xlink" version="1.1" id="Full_2_" x="0px" y="0px" width="32" height="32" viewBox="0 0 32 32" style="fill: rgb(3, 90, 161);" xml:space="preserve" viewbox="0 0 32 32">
<path d="M28,16c0,2.451-0.738,4.865-2,6.937V25c0,1.104-0.896,2-2,2c-0.462,0-0.882-0.163-1.22-0.426C20.851,28.077,18.517,29,16,29  c-1.5,0-1.5-3,0-3h4.004c0.712-0.368,1.382-0.825,1.996-1.355V18c0-1.104,0.896-2,2-2c0.896,0,1.646,0.594,1.9,1.406  c0.059-0.451,0.1-0.905,0.1-1.362C26,10.497,21.522,6,16,6C10.477,6,6,10.497,6,16.044c0,0.152,0.016,0.304,0.022,0.456H6V18  c0-1.104,0.896-2,2-2s2,0.896,2,2v7c0,1.104-0.896,2-2,2s-2-0.896-2-2v-2.063C4.738,20.865,4,18.451,4,16C4,9.373,9.373,4,16,4  C22.627,4,28,9.373,28,16z" style="fill: rgb(3, 90, 161);"></path>
</svg>