<svg xmlns="http://www.w3.org/2000/svg" xmlns:xlink="http://www.w3.org/1999/xlink" version="1.1"  x="0px" y="0px" width="32" height="32" viewBox="0 0 40 40" enable-background="new 0 0 40 40" xml:space="preserve" style="fill: rgb(3, 90, 161);" viewbox="0 0 32 32">
<g id="55152588_Shape_5_xA0_Clipping_Path_1_">
	<g>
		<path d="M31,20c0-1.521,0-4.605,0-8c0-6.405-4.72-11-11-11S9,5.595,9,12c0,0.801,0,5,0,5h5c0,0,0.005-0.872,0.005-5.097    c0-3.379,2.569-5.914,5.995-5.914S26,8.62,26,12c0,2.504,0,6.233,0,8H5v19h30V20H31z M21,29.816V36h-2v-6.184    c-1.163-0.413-2-1.512-2-2.816c0-1.657,1.343-3,3-3c1.656,0,3,1.343,3,3C23,28.305,22.162,29.403,21,29.816z" style="fill: rgb(3, 90, 161);"></path>
	</g>
</g>
</svg>