<svg xmlns="http://www.w3.org/2000/svg" xmlns:xlink="http://www.w3.org/1999/xlink" version="1.1"  x="0px" y="0px" width="32" height="32" viewBox="0 0 24 24" style="fill: rgb(3, 90, 161);" xml:space="preserve" preserveAspectRatio="none" viewbox="0 0 32 32">
<path d="M15,12c0,1.65-1.35,3-3,3c-1.65,0-3-1.35-3-3c0-1.65,1.35-3,3-3C13.65,9,15,10.35,15,12z M23,12c0,0-3,7-11,7S1,12,1,12  s3-7,11-7S23,12,23,12z M17,12c0-2.76-2.24-5-5-5s-5,2.24-5,5s2.24,5,5,5S17,14.76,17,12z" style="fill: rgb(3, 90, 161);"></path>
</svg>